<svg width="63" height="63" viewBox="0 0 63 63" fill="none" xmlns="http://www.w3.org/2000/svg">
<circle cx="31.5" cy="31.5" r="31.1032" stroke="url(#paint0_linear_1541_45269)" stroke-width="0.793651"/>
<g filter="url(#filter0_i_1541_45269)">
<path d="M40.2613 23.9289C40.2613 23.2714 39.7283 22.7384 39.0708 22.7384L28.3566 22.7384C27.6991 22.7384 27.1661 23.2714 27.1661 23.9289C27.1661 24.5864 27.6991 25.1194 28.3566 25.1194H37.8804V34.6432C37.8804 35.3007 38.4134 35.8337 39.0708 35.8337C39.7283 35.8337 40.2613 35.3007 40.2613 34.6432L40.2613 23.9289ZM25.7705 38.9128L39.9126 24.7707L38.2291 23.0871L24.0869 37.2293L25.7705 38.9128Z" fill="white"/>
</g>
<defs>
<filter id="filter0_i_1541_45269" x="24.0869" y="22.7384" width="16.1743" height="19.349" filterUnits="userSpaceOnUse" color-interpolation-filters="sRGB">
<feFlood flood-opacity="0" result="BackgroundImageFix"/>
<feBlend mode="normal" in="SourceGraphic" in2="BackgroundImageFix" result="shape"/>
<feColorMatrix in="SourceAlpha" type="matrix" values="0 0 0 0 0 0 0 0 0 0 0 0 0 0 0 0 0 0 127 0" result="hardAlpha"/>
<feOffset dy="3.1746"/>
<feGaussianBlur stdDeviation="1.5873"/>
<feComposite in2="hardAlpha" operator="arithmetic" k2="-1" k3="1"/>
<feColorMatrix type="matrix" values="0 0 0 0 1 0 0 0 0 1 0 0 0 0 1 0 0 0 0.25 0"/>
<feBlend mode="normal" in2="shape" result="effect1_innerShadow_1541_45269"/>
</filter>
<linearGradient id="paint0_linear_1541_45269" x1="31.5" y1="0" x2="31.5" y2="63" gradientUnits="userSpaceOnUse">
<stop stop-color="#FF9A67"/>
<stop offset="1" stop-color="#F36A24"/>
</linearGradient>
</defs>
</svg>
