<svg width="160" height="44" viewBox="0 0 160 44" fill="none" xmlns="http://www.w3.org/2000/svg">
<g clip-path="url(#clip0_688_46471)">
<path d="M52.3847 8.22829C53.4416 8.11048 54.6159 7.99268 55.9076 7.99268C58.2562 7.99268 60.0177 8.46391 61.192 9.52418C62.3663 10.4666 63.0709 11.8803 63.0709 13.8831C63.0709 15.8858 62.3663 17.5351 61.192 18.5954C60.0177 19.7735 58.0214 20.3625 55.4379 20.3625C54.2636 20.3625 53.2067 20.3625 52.3847 20.2447V8.22829ZM54.0288 19.0666C54.4985 19.1845 55.0856 19.1845 55.6728 19.1845C59.1957 19.1845 61.192 17.2995 61.192 14.0009C61.192 11.1735 59.4305 9.28857 55.9076 9.28857C55.0856 9.28857 54.381 9.40637 53.9113 9.40637V19.0666H54.0288Z" fill="white"/>
<path d="M66.8286 8.11047V20.3625H65.1846V8.11047H66.8286Z" fill="white"/>
<path d="M79.6285 19.7735C78.9239 20.0091 77.3973 20.4803 75.6359 20.4803C73.6395 20.4803 72.113 20.0091 70.8212 18.831C69.7644 17.7708 69.0598 16.2393 69.0598 14.2365C69.0598 10.5845 71.7607 7.99268 76.1056 7.99268C77.6322 7.99268 78.8065 8.3461 79.3936 8.58172L78.8065 9.7598C78.1019 9.52418 77.2799 9.28857 75.9881 9.28857C72.8175 9.28857 70.8212 11.1735 70.8212 14.2365C70.8212 17.2995 72.8175 19.1845 75.8707 19.1845C76.9276 19.1845 77.7496 19.0666 78.1019 18.831V15.179H75.5184V13.8831H79.6285V19.7735Z" fill="white"/>
<path d="M83.8559 8.11047V20.3625H82.2119V8.11047H83.8559Z" fill="white"/>
<path d="M89.2577 9.40636H85.2651V8.11047H94.8943V9.40636H90.9017V20.2447H89.2577V9.40636V9.40636Z" fill="white"/>
<path d="M97.0081 16.4749L95.7163 20.3625H93.9549L98.2998 8.11047H100.296L104.758 20.3625H102.997L101.588 16.4749H97.0081ZM101.236 15.179L99.9438 11.6447C99.709 10.8201 99.4741 10.1132 99.2392 9.40636C99.0044 10.1132 98.887 10.8201 98.5347 11.6447L97.2429 15.179H101.236Z" fill="white"/>
<path d="M106.637 8.11047H108.281V18.9488H113.801V20.2447H106.637V8.11047Z" fill="white"/>
<path d="M94.8944 32.2612L93.6026 36.1488H91.8412L96.1861 23.8968H98.1824L102.645 36.1488H100.766L99.3567 32.2612H94.8944V32.2612ZM99.1218 31.0831L97.8301 27.5488C97.5952 26.7242 97.3604 26.0173 97.1255 25.3105C96.8907 26.0173 96.7732 26.7242 96.421 27.5488L95.1292 31.0831H99.1218Z" fill="white"/>
<path d="M113.331 35.7954C112.744 36.031 111.452 36.3845 109.925 36.3845C106.285 36.3845 103.467 34.2639 103.467 30.2584C103.467 26.4886 106.168 23.8968 110.278 23.8968C111.922 23.8968 112.861 24.2502 113.331 24.4858L112.979 25.7817C112.274 25.3105 111.335 25.0749 110.278 25.0749C107.224 25.0749 105.228 26.9598 105.228 30.1406C105.228 33.0858 107.107 35.0886 110.16 35.0886C111.217 35.0886 112.274 34.853 112.861 34.6173L113.331 35.7954Z" fill="white"/>
<path d="M124.017 35.7954C123.43 36.031 122.138 36.3845 120.612 36.3845C116.971 36.3845 114.153 34.2639 114.153 30.2584C114.153 26.4886 116.854 23.8968 120.964 23.8968C122.608 23.8968 123.547 24.2502 124.017 24.4858L123.665 25.7817C123.078 25.5461 122.138 25.3105 121.081 25.3105C118.028 25.3105 116.032 27.1954 116.032 30.3762C116.032 33.3214 117.911 35.3242 120.964 35.3242C122.021 35.3242 123.078 35.0886 123.665 34.853L124.017 35.7954Z" fill="white"/>
<path d="M136.817 29.905C136.817 34.1461 134.116 36.3845 130.828 36.3845C127.422 36.3845 124.956 33.9105 124.956 30.1406C124.956 26.253 127.54 23.779 130.945 23.779C134.468 23.779 136.817 26.253 136.817 29.905ZM126.718 30.1406C126.718 32.7324 128.244 35.0886 130.828 35.0886C133.529 35.0886 134.938 32.7324 134.938 30.0228C134.938 27.5489 133.646 25.0749 130.828 25.0749C128.127 25.0749 126.718 27.431 126.718 30.1406Z" fill="white"/>
<path d="M138.931 24.1324C139.753 24.0146 141.044 23.8968 142.101 23.8968C143.863 23.8968 145.037 24.2502 145.859 24.8393C146.563 25.4283 146.916 26.253 146.916 27.1954C146.916 28.8447 145.859 29.905 144.45 30.2584C145.507 30.6119 146.094 31.4365 146.329 32.7324C146.798 34.3817 147.033 35.5598 147.385 36.031H145.624C145.389 35.6776 145.154 34.6173 144.802 33.0858C144.45 31.4365 143.745 30.7297 142.219 30.7297H140.692V36.031H139.048V24.1324H138.931ZM140.692 29.6694H142.453C144.215 29.6694 145.389 28.7269 145.389 27.3132C145.389 25.7817 144.215 25.0749 142.453 25.0749C141.631 25.0749 141.044 25.1927 140.809 25.1927V29.6694H140.692Z" fill="white"/>
<path d="M149.264 24.1324C150.321 24.0146 151.496 23.8968 152.787 23.8968C155.136 23.8968 156.897 24.368 158.072 25.4283C159.246 26.3708 159.95 27.7845 159.95 29.7872C159.95 31.7899 159.246 33.4393 158.072 34.4995C156.897 35.6776 154.901 36.2667 152.318 36.2667C151.143 36.2667 150.086 36.2667 149.264 36.1488V24.1324V24.1324ZM151.026 34.853C151.496 34.9708 152.083 34.9708 152.67 34.9708C156.193 34.9708 158.189 33.0858 158.189 29.7872C158.189 26.9598 156.428 25.0749 152.905 25.0749C152.083 25.0749 151.378 25.1927 150.908 25.1927V34.853H151.026Z" fill="white"/>
<path d="M21.9704 9.28857L9.17056 7.28583L0.95047 16.8283L5.64766 28.2557L18.4475 30.2584L26.6676 20.716L21.9704 9.28857Z" fill="#F36A24"/>
<path d="M40.0546 22.0119L27.9593 20.1269L23.497 9.28857L31.2474 0.335144L43.4601 2.10227L47.9224 12.9406L40.0546 22.0119ZM28.7813 19.0667L39.4675 20.716L46.2784 12.8228L42.4032 3.28035L31.7171 1.63103L24.9062 9.52419L28.7813 19.0667Z" fill="white"/>
<path d="M36.5317 43.3352L24.319 41.4502L19.8567 30.6119L27.607 21.6584L39.8197 23.5434L44.2821 34.3817L36.5317 43.3352ZM25.2584 40.39L35.9446 42.0393L42.7555 34.1461L38.8803 24.6037L28.0768 22.9543L21.2658 30.8475L25.2584 40.39Z" fill="white"/>
<path opacity="0.2" d="M35.4748 35.3242C31.5997 33.4393 27.607 31.5543 23.7319 29.6694C22.5576 29.0804 21.3833 28.9626 21.2658 27.9023C21.031 25.6639 20.9135 23.4256 20.6787 21.1872C20.4438 18.9489 20.3264 16.7105 20.0915 14.4721C19.9741 13.4119 20.6787 13.4119 22.0878 12.5872C25.6107 10.3489 29.2511 8.1105 32.774 5.87214C31.8345 5.98995 30.8951 6.10776 29.9556 6.22557C33.8308 8.1105 37.8234 9.99543 41.6986 11.8804C42.8729 12.4694 44.0472 12.5872 44.1647 13.6475C44.3995 15.8858 44.5169 18.1242 44.7518 20.3626C44.9867 22.6009 45.1041 24.8393 45.339 27.0776C45.4564 28.1379 44.7518 28.1379 43.3426 28.9626C39.8198 31.2009 36.1794 33.4393 32.6565 35.6776C32.1868 36.031 34.8877 35.9132 35.3574 35.5598C39.7023 32.8502 44.0472 30.1406 48.2747 27.431C48.3921 27.431 48.3921 27.3132 48.5096 27.1954C48.1573 22.2475 47.6876 17.2995 47.3353 12.2338C47.3353 11.5269 41.4638 9.40639 40.7592 9.05296C38.1757 7.87488 35.7097 6.57899 33.1262 5.40091C32.5391 5.04749 30.8951 5.40091 30.3079 5.75433C25.963 8.46392 21.6181 11.1735 17.3907 13.8831C17.2732 13.8831 17.2732 14.0009 17.1558 14.1187C17.5081 19.0667 17.9778 24.0146 18.3301 29.0804C18.3301 29.7872 24.2016 31.9078 24.9062 32.2612C27.4896 33.4393 29.9556 34.7352 32.5391 35.9132C33.2437 36.3845 35.4748 35.3242 35.4748 35.3242Z" fill="white"/>
</g>
<defs>
<clipPath id="clip0_688_46471">
<rect width="159" height="43" fill="white" transform="translate(0.95047 0.335144)"/>
</clipPath>
</defs>
</svg>
