<svg width="64" height="64" viewBox="0 0 64 64" fill="none" xmlns="http://www.w3.org/2000/svg">
<circle cx="32" cy="32" r="31.75" fill="white" fill-opacity="0.1" stroke="white" stroke-width="0.5"/>
<path d="M37.3293 18H25.4427C23.6043 18.0021 21.8418 18.7755 20.5418 20.1507C19.2419 21.5258 18.5108 23.3903 18.5088 25.335V37.9093C18.5108 39.854 19.2419 41.7185 20.5418 43.0936C21.8418 44.4688 23.6043 45.2422 25.4427 45.2443H37.3293C39.1677 45.2422 40.9302 44.4688 42.2301 43.0936C43.53 41.7185 44.2612 39.854 44.2632 37.9093V25.335C44.2612 23.3903 43.53 21.5258 42.2301 20.1507C40.9302 18.7755 39.1677 18.0021 37.3293 18ZM31.386 37.9093C30.2105 37.9093 29.0614 37.5406 28.084 36.8497C27.1067 36.1589 26.3449 35.177 25.8951 34.0281C25.4452 32.8793 25.3275 31.6152 25.5569 30.3956C25.7862 29.176 26.3522 28.0557 27.1834 27.1765C28.0146 26.2972 29.0736 25.6984 30.2265 25.4558C31.3794 25.2132 32.5744 25.3377 33.6604 25.8136C34.7464 26.2894 35.6746 27.0953 36.3277 28.1292C36.9807 29.1631 37.3293 30.3787 37.3293 31.6221C37.3277 33.2891 36.701 34.8872 35.5867 36.0659C34.4725 37.2446 32.9617 37.9076 31.386 37.9093ZM38.8151 25.335C38.5213 25.335 38.234 25.2428 37.9896 25.0701C37.7453 24.8974 37.5549 24.6519 37.4424 24.3647C37.3299 24.0775 37.3005 23.7615 37.3578 23.4566C37.4152 23.1517 37.5567 22.8716 37.7645 22.6518C37.9723 22.432 38.237 22.2823 38.5253 22.2216C38.8135 22.161 39.1122 22.1921 39.3837 22.3111C39.6552 22.43 39.8873 22.6315 40.0505 22.89C40.2138 23.1485 40.301 23.4523 40.301 23.7632C40.301 24.1801 40.1444 24.5799 39.8658 24.8746C39.5871 25.1694 39.2092 25.335 38.8151 25.335ZM35.3482 31.6221C35.3482 32.4511 35.1158 33.2615 34.6804 33.9508C34.2451 34.6401 33.6262 35.1773 32.9022 35.4945C32.1782 35.8118 31.3816 35.8948 30.613 35.733C29.8444 35.5713 29.1384 35.1721 28.5843 34.5859C28.0301 33.9998 27.6528 33.2529 27.4999 32.4399C27.347 31.6268 27.4255 30.784 27.7254 30.0182C28.0253 29.2523 28.5331 28.5977 29.1847 28.1371C29.8363 27.6765 30.6023 27.4307 31.386 27.4307C32.4368 27.4307 33.4446 27.8723 34.1877 28.6584C34.9307 29.4444 35.3482 30.5105 35.3482 31.6221Z" fill="white"/>
</svg>
