<svg width="64" height="64" viewBox="0 0 64 64" fill="none" xmlns="http://www.w3.org/2000/svg">
<circle cx="32" cy="32" r="31.75" fill="white" fill-opacity="0.1" stroke="white" stroke-width="0.5"/>
<path d="M42.5277 18H20.7355C20.2101 18 19.7062 18.2208 19.3346 18.6138C18.9631 19.0068 18.7544 19.5399 18.7544 20.0957V43.1486C18.7544 43.7044 18.9631 44.2375 19.3346 44.6305C19.7062 45.0235 20.2101 45.2443 20.7355 45.2443H42.5277C43.0531 45.2443 43.557 45.0235 43.9285 44.6305C44.3 44.2375 44.5088 43.7044 44.5088 43.1486V20.0957C44.5088 19.5399 44.3 19.0068 43.9285 18.6138C43.557 18.2208 43.0531 18 42.5277 18ZM27.6694 37.9093C27.6694 38.1872 27.565 38.4537 27.3792 38.6502C27.1935 38.8468 26.9415 38.9572 26.6788 38.9572C26.4161 38.9572 26.1642 38.8468 25.9784 38.6502C25.7926 38.4537 25.6883 38.1872 25.6883 37.9093V29.5264C25.6883 29.2485 25.7926 28.982 25.9784 28.7855C26.1642 28.589 26.4161 28.4786 26.6788 28.4786C26.9415 28.4786 27.1935 28.589 27.3792 28.7855C27.565 28.982 27.6694 29.2485 27.6694 29.5264V37.9093ZM26.6788 27.4307C26.3849 27.4307 26.0977 27.3385 25.8533 27.1658C25.609 26.9931 25.4185 26.7476 25.3061 26.4604C25.1936 26.1732 25.1642 25.8572 25.2215 25.5523C25.2789 25.2474 25.4204 24.9673 25.6282 24.7475C25.836 24.5277 26.1007 24.378 26.3889 24.3173C26.6772 24.2567 26.9759 24.2878 27.2474 24.4068C27.5189 24.5258 27.751 24.7272 27.9142 24.9857C28.0775 25.2442 28.1646 25.5481 28.1646 25.8589C28.1646 26.2758 28.0081 26.6756 27.7295 26.9704C27.4508 27.2651 27.0729 27.4307 26.6788 27.4307ZM38.5655 37.9093C38.5655 38.1872 38.4611 38.4537 38.2753 38.6502C38.0896 38.8468 37.8376 38.9572 37.5749 38.9572C37.3122 38.9572 37.0602 38.8468 36.8745 38.6502C36.6887 38.4537 36.5843 38.1872 36.5843 37.9093V33.1939C36.5843 32.4992 36.3234 31.8328 35.859 31.3416C35.3946 30.8503 34.7647 30.5743 34.108 30.5743C33.4512 30.5743 32.8213 30.8503 32.3569 31.3416C31.8925 31.8328 31.6316 32.4992 31.6316 33.1939V37.9093C31.6316 38.1872 31.5272 38.4537 31.3415 38.6502C31.1557 38.8468 30.9037 38.9572 30.641 38.9572C30.3783 38.9572 30.1264 38.8468 29.9406 38.6502C29.7548 38.4537 29.6505 38.1872 29.6505 37.9093V29.5264C29.6517 29.2698 29.7419 29.0225 29.9041 28.8315C30.0662 28.6406 30.2889 28.5192 30.5301 28.4905C30.7712 28.4617 31.0139 28.5276 31.2121 28.6756C31.4104 28.8235 31.5504 29.0433 31.6056 29.2933C32.2757 28.8124 33.0569 28.5337 33.8655 28.4871C34.674 28.4405 35.4792 28.6278 36.1948 29.0288C36.9103 29.4298 37.509 30.0294 37.9267 30.7632C38.3444 31.497 38.5652 32.3374 38.5655 33.1939V37.9093Z" fill="white"/>
</svg>
