<svg width="64" height="64" viewBox="0 0 64 64" fill="none" xmlns="http://www.w3.org/2000/svg">
<circle cx="32" cy="32" r="31.75" fill="white" fill-opacity="0.1" stroke="white" stroke-width="0.5"/>
<path d="M44.7544 31.6671C44.7503 35.0078 43.5956 38.2316 41.5077 40.7313C39.4198 43.231 36.5428 44.834 33.4187 45.2385C33.3491 45.2468 33.2787 45.2394 33.212 45.2168C33.1453 45.1941 33.084 45.1568 33.0319 45.1071C32.9798 45.0574 32.9383 44.9966 32.91 44.9286C32.8817 44.8606 32.8673 44.7871 32.8677 44.7128V34.8214H35.8394C35.9752 34.8217 36.1096 34.7924 36.2342 34.7352C36.3589 34.6781 36.4712 34.5944 36.5641 34.4892C36.657 34.3841 36.7285 34.2598 36.7742 34.1241C36.82 33.9884 36.8389 33.8441 36.8299 33.7003C36.8081 33.4299 36.6905 33.1784 36.501 32.9962C36.3115 32.8141 36.0641 32.7149 35.8084 32.7185H32.8677V29.5642C32.8677 29.0065 33.0764 28.4716 33.448 28.0773C33.8195 27.6829 34.3234 27.4613 34.8488 27.4613H36.8299C36.9657 27.4617 37.1001 27.4323 37.2248 27.3752C37.3495 27.3181 37.4617 27.2343 37.5546 27.1292C37.6475 27.024 37.7191 26.8998 37.7648 26.764C37.8105 26.6283 37.8295 26.4841 37.8205 26.3402C37.7986 26.0694 37.6807 25.8175 37.4907 25.6353C37.3006 25.4531 37.0526 25.3541 36.7965 25.3585H34.8488C33.798 25.3585 32.7902 25.8016 32.0471 26.5903C31.3041 27.379 30.8866 28.4488 30.8866 29.5642V32.7185H27.9149C27.7791 32.7182 27.6447 32.7475 27.5201 32.8047C27.3954 32.8618 27.2831 32.9455 27.1902 33.0507C27.0974 33.1558 27.0258 33.2801 26.9801 33.4158C26.9343 33.5515 26.9154 33.6958 26.9244 33.8396C26.9463 34.1104 27.0642 34.3624 27.2542 34.5446C27.4442 34.7268 27.6923 34.8257 27.9484 34.8214H30.8866V44.7154C30.887 44.7896 30.8727 44.863 30.8444 44.9309C30.8162 44.9988 30.7748 45.0595 30.7228 45.1092C30.6709 45.1588 30.6097 45.1962 30.5431 45.219C30.4766 45.2417 30.4063 45.2493 30.3368 45.2411C27.1291 44.8265 24.185 43.1486 22.0871 40.5397C19.9892 37.9308 18.8906 34.5809 19.0086 31.1532C19.2562 24.056 24.6721 18.2863 31.3633 18.0103C33.0957 17.939 34.8237 18.2394 36.4442 18.8934C38.0647 19.5474 39.5442 20.5416 40.7943 21.8166C42.0445 23.0915 43.0395 24.621 43.7199 26.3135C44.4003 28.0061 44.7522 29.8269 44.7544 31.6671Z" fill="white"/>
</svg>
